HIERARCHY
ROOT joint_Root
{
	OFFSET 0.0 0.0 0.0
	CHANNELS 6 Xposition Yposition Zposition Zrotation Xrotation Yrotation 
	JOINT Hips
	{
		OFFSET -0.726466 93.3139 -2.00062
		CHANNELS 6 Xposition Yposition Zposition Zrotation Xrotation Yrotation 
		JOINT Spine
		{
			OFFSET 15.7357 0.0 0.0
			CHANNELS 6 Xposition Yposition Zposition Zrotation Xrotation Yrotation 
			JOINT Chest
			{
				OFFSET 8.98455 -0.406207 0.0
				CHANNELS 6 Xposition Yposition Zposition Zrotation Xrotation Yrotation 
				JOINT Neck
				{
					OFFSET 16.3773 0.0 0.0
					CHANNELS 6 Xposition Yposition Zposition Zrotation Xrotation Yrotation 
					JOINT Head
					{
						OFFSET 6.45672 0.0 0.0
						CHANNELS 6 Xposition Yposition Zposition Zrotation Xrotation Yrotation 
						End Site
						{
							OFFSET 0.0 0.0 0.0
						}
					}
				}
				JOINT Shoulder_L
				{
					OFFSET 12.9942 -0.242716 4.98039
					CHANNELS 6 Xposition Yposition Zposition Zrotation Xrotation Yrotation 
					JOINT UpperArm_L
					{
						OFFSET 5.34809 0.0 0.0
						CHANNELS 6 Xposition Yposition Zposition Zrotation Xrotation Yrotation 
						JOINT LowerArm_L
						{
							OFFSET 24.3286 1.87007e-05 0.0
							CHANNELS 6 Xposition Yposition Zposition Zrotation Xrotation Yrotation 
							JOINT Hand_L
							{
								OFFSET 22.2916 0.0 0.0
								CHANNELS 6 Xposition Yposition Zposition Zrotation Xrotation Yrotation 
								End Site
								{
									OFFSET 0.0 0.0 0.0
								}
							}
						}
					}
				}
				JOINT Shoulder_R
				{
					OFFSET 12.9945 -0.242716 -4.98039
					CHANNELS 6 Xposition Yposition Zposition Zrotation Xrotation Yrotation 
					JOINT UpperArm_R
					{
						OFFSET -5.34813 0.0 0.0
						CHANNELS 6 Xposition Yposition Zposition Zrotation Xrotation Yrotation 
						JOINT LowerArm_R
						{
							OFFSET -24.3289 0.000322201 0.0
							CHANNELS 6 Xposition Yposition Zposition Zrotation Xrotation Yrotation 
							JOINT Hand_R
							{
								OFFSET -22.2915 -0.000108084 0.0
								CHANNELS 6 Xposition Yposition Zposition Zrotation Xrotation Yrotation 
								End Site
								{
									OFFSET 0.0 0.0 0.0
								}
							}
						}
					}
				}
			}
		}
		JOINT UpperLeg_L
		{
			OFFSET -2.19248 -6.46944 0.0
			CHANNELS 6 Xposition Yposition Zposition Zrotation Xrotation Yrotation 
			JOINT LowerLeg_L
			{
				OFFSET 39.0811 0.0 -1.23785e-05
				CHANNELS 6 Xposition Yposition Zposition Zrotation Xrotation Yrotation 
				JOINT Foot_L
				{
					OFFSET 40.9854 0.0 -1.26872e-05
					CHANNELS 6 Xposition Yposition Zposition Zrotation Xrotation Yrotation 
					JOINT Toes_L
					{
						OFFSET 11.7543 0.0 0.0
						CHANNELS 6 Xposition Yposition Zposition Zrotation Xrotation Yrotation 
						End Site
						{
							OFFSET 0.0 0.0 0.0
						}
					}
				}
			}
		}
		JOINT UpperLeg_R
		{
			OFFSET -2.19251 6.46944 0.0
			CHANNELS 6 Xposition Yposition Zposition Zrotation Xrotation Yrotation 
			JOINT LowerLeg_R
			{
				OFFSET -39.0811 -0.00228153 -0.0401928
				CHANNELS 6 Xposition Yposition Zposition Zrotation Xrotation Yrotation 
				JOINT Foot_R
				{
					OFFSET -40.9854 0.0 0.0
					CHANNELS 6 Xposition Yposition Zposition Zrotation Xrotation Yrotation 
					JOINT Toes_R
					{
						OFFSET -11.7543 0.0 0.0
						CHANNELS 6 Xposition Yposition Zposition Zrotation Xrotation Yrotation 
						End Site
						{
							OFFSET 0.0 0.0 0.0
						}
					}
				}
			}
		}
	}
}
MOTION
Frames:	4
Frame Time:	0.0333333
0.000000 0.000000 0.000000 0.000000 0.000000 -0.000000 -1.003730 91.946200 -0.168655 87.482500 -2.784900 2.425850 15.735700 0.000005 -0.000001 86.515700 85.805900 -85.853100 8.984550 -0.406207 -0.000000 0.610144 -0.550972 1.327080 16.377300 -0.000001 -0.000001 0.824137 -2.427320 0.831003 6.456720 -0.000001 -0.000000 2.368090 -1.630350 -2.498160 12.994200 -0.242716 4.980390 -89.870200 -0.388855 -71.540800 5.348090 -0.000007 -0.000001 -65.800000 36.195200 -14.459700 24.328600 0.000019 0.000005 1.918720 4.402180 -23.577100 22.291600 -0.000001 0.000005 4.480720 5.578710 -10.142200 12.994500 -0.242716 -4.980390 88.037500 5.506130 -70.347900 -5.348130 -0.000001 -0.000004 -62.810000 31.067700 -12.998700 -24.328900 0.000322 -0.000009 -1.154430 -2.403640 -25.645900 -22.291500 -0.000108 -0.000004 13.628300 5.619690 -12.598700 -2.192480 -6.469440 -0.000000 -168.964000 -14.818800 -1.803260 39.081100 -0.000007 -0.000012 -0.194084 0.492912 21.492300 40.985400 -0.000006 -0.000013 -6.357230 1.762670 -65.391800 11.754300 -0.000000 0.000003 -0.000046 -0.000523 -16.597900 -2.192510 6.469440 -0.000001 174.767000 19.413600 179.494000 -39.081100 -0.002282 -0.040193 -0.051639 0.159706 18.990800 -40.985400 0.000008 0.000006 -3.391380 3.807770 -64.037300 -11.754300 -0.000006 -0.000006 -0.004850 -0.060003 -19.014400
0.000000 0.000000 0.000000 0.000000 0.000000 -0.000000 -1.000830 91.952300 -0.184827 87.473000 -2.854030 2.430730 15.735700 0.000005 -0.000001 86.240000 85.775100 -85.546400 8.984550 -0.406207 -0.000000 0.669655 -0.596866 1.389660 16.377300 -0.000001 -0.000001 0.824306 -2.413610 0.792973 6.456720 -0.000001 -0.000000 2.294490 -1.579230 -2.540610 12.994200 -0.242716 4.980390 -89.949500 -0.150492 -71.430100 5.348090 -0.000007 -0.000001 -63.817100 35.809900 -15.322900 24.328600 0.000019 0.000005 2.146590 4.716160 -24.506800 22.291600 -0.000001 0.000005 4.776920 5.584180 -10.438400 12.994500 -0.242716 -4.980390 88.124800 5.221900 -70.214800 -5.348130 -0.000001 -0.000004 -61.116600 34.776100 -12.797900 -24.328900 0.000322 -0.000009 -1.246950 -2.189030 -29.662200 -22.291500 -0.000108 -0.000004 13.435900 5.613510 -12.185200 -2.192480 -6.469440 -0.000000 -168.961000 -14.807900 -1.765700 39.081100 -0.000007 -0.000012 -0.194259 0.494371 21.452200 40.985400 -0.000006 -0.000013 -6.370980 1.683630 -65.382700 11.754300 -0.000000 0.000003 -0.000056 -0.000626 -16.601800 -2.192510 6.469440 -0.000001 174.776000 19.370800 179.499000 -39.081100 -0.002282 -0.040193 -0.051056 0.158402 18.947300 -40.985400 0.000008 0.000006 -3.366470 3.860450 -64.000600 -11.754300 -0.000006 -0.000006 -0.004789 -0.059406 -18.990100
0.000000 0.000000 0.000000 0.000000 0.000000 -0.000000 -1.008700 91.954300 -0.197279 87.437500 -2.902950 2.418880 15.735700 0.000005 -0.000001 86.131100 85.734000 -85.388000 8.984550 -0.406207 -0.000000 0.751021 -0.620954 1.489210 16.377300 -0.000001 -0.000001 0.748880 -2.397670 0.664449 6.456720 -0.000001 -0.000000 2.240940 -1.586830 -2.486140 12.994200 -0.242716 4.980390 -90.013000 0.038057 -71.211800 5.348090 -0.000007 -0.000001 -60.560600 35.365200 -17.191300 24.328600 0.000019 0.000005 2.527730 5.282300 -25.615400 22.291600 -0.000001 0.000005 4.696940 5.587910 -10.644300 12.994500 -0.242716 -4.980390 88.252400 4.813810 -70.019300 -5.348130 -0.000001 -0.000004 -58.977700 38.929200 -12.582900 -24.328900 0.000322 -0.000009 -1.015910 -1.468610 -34.677600 -22.291500 -0.000108 -0.000004 13.049600 5.616080 -12.356000 -2.192480 -6.469440 -0.000000 -168.903000 -14.921000 -1.785830 39.081100 -0.000007 -0.000012 -0.194401 0.494315 21.468700 40.985400 -0.000006 -0.000013 -6.365120 1.760080 -65.367500 11.754300 -0.000000 0.000003 -0.000052 -0.000584 -16.600200 -2.192510 6.469440 -0.000001 174.842000 19.395000 179.457000 -39.081100 -0.002282 -0.040193 -0.048137 0.149705 18.970100 -40.985400 0.000008 0.000006 -3.248670 3.876110 -64.005800 -11.754300 -0.000006 -0.000006 -0.005079 -0.062232 -19.105200
0.000000 0.000000 0.000000 0.000000 0.000000 -0.000000 -1.044380 91.967000 -0.231986 87.448200 -2.824860 2.415250 15.735700 0.000005 -0.000001 85.858100 85.704500 -85.069100 8.984550 -0.406207 -0.000000 0.807652 -0.668168 1.581570 16.377300 -0.000001 -0.000001 0.727205 -2.422560 0.530439 6.456720 -0.000001 -0.000000 2.208650 -1.633530 -2.455460 12.994200 -0.242716 4.980390 -90.042500 0.123441 -71.006400 5.348090 -0.000007 -0.000001 -56.244800 34.376300 -19.748800 24.328600 0.000019 0.000005 3.421490 6.741550 -26.987400 22.291600 -0.000001 0.000005 5.076230 5.592030 -10.875600 12.994500 -0.242716 -4.980390 88.414800 4.309770 -69.783500 -5.348130 -0.000001 -0.000004 -56.582300 42.967600 -12.149700 -24.328900 0.000322 -0.000009 -0.719076 -0.838485 -40.611100 -22.291500 -0.000108 -0.000004 11.862700 5.622750 -12.817300 -2.192480 -6.469440 -0.000000 -168.905000 -14.830700 -1.777720 39.081100 -0.000007 -0.000012 -0.193382 0.494471 21.360200 40.985400 -0.000006 -0.000013 -6.395460 1.719910 -65.283400 11.754300 -0.000000 0.000003 -0.000053 -0.000599 -16.600800 -2.192510 6.469440 -0.000001 174.872000 19.460500 179.450000 -39.081100 -0.002282 -0.040193 -0.046173 0.144185 18.946500 -40.985400 0.000008 0.000006 -3.154360 3.830570 -63.992900 -11.754300 -0.000006 -0.000006 -0.005035 -0.061799 -19.087600
